<svg xmlns="http://www.w3.org/2000/svg" xmlns:xlink="http://www.w3.org/1999/xlink" x="0px" y="0px" width="15.797px" height="13.375px" viewBox="0 0 15.797 13.375" enable-background="new 0 0 15.797 13.375" xml:space="preserve">
	<path d="M0.636,6.398h13.371L8.488,0.88l0.7-0.701l6.363,6.364c0.023,0.023,0.027,0.057,0.045,0.084
	c0.02,0.027,0.051,0.045,0.063,0.076c0.007,0.017,0,0.034,0.005,0.051c0.014,0.046,0.014,0.089,0.014,0.137
	c0,0.051,0,0.096-0.015,0.145c-0.005,0.016,0.001,0.031-0.005,0.047c-0.012,0.031-0.041,0.047-0.059,0.072
	c-0.019,0.029-0.023,0.064-0.047,0.09l-6.015,6.013l-0.7-0.701l5.168-5.167H0.636H0.14V6.398H0.636z"/>
</svg>